ffmpeg started on 2025-06-20 at 17:27:51
Report written to "D:\Convert\FFMetrics\reports\ssim_report-6.txt"
Log level: 32
Command line:
ffmpeg -hide_banner -nostdin -i "G:\\\xc0\xed\xe8\xec\xe5\\[\xd2\xee\xef]\\\xc2\xee\xeb\xf7\xe8\xf6\xe0 \xe8 \xef\xf0\xff\xed\xee\xf1\xf2\xe8\\\xd2\xee\xf0\xe3\xee\xe2\xe5\xf6 \xe2\xf1\xf2\xf0\xe5\xf7\xe0\xe5\xf2 \xec\xf3\xe4\xf0\xf3\xfe \xe2\xee\xeb\xf7\xe8\xf6\xf3\\DC_Ookami_to_Koushinryou_Merchant_Meets_the_Wise_Wolf_21_Telegram_HEVC.mkv" -i "G:\\\xc0\xed\xe8\xec\xe5\\[\xd2\xee\xef]\\\xc2\xee\xeb\xf7\xe8\xf6\xe0 \xe8 \xef\xf0\xff\xed\xee\xf1\xf2\xe8\\\xd2\xee\xf0\xe3\xee\xe2\xe5\xf6 \xe2\xf1\xf2\xf0\xe5\xf7\xe0\xe5\xf2 \xec\xf3\xe4\xf0\xf3\xfe \xe2\xee\xeb\xf7\xe8\xf6\xf3\\DC_Ookami_to_Koushinryou_Merchant_Meets_the_Wise_Wolf_21_Telegram.mp4" -lavfi "[0:v]settb=AVTB,setpts=PTS-STARTPTS,format=pix_fmts=yuv420p10,fps=24000/1001,scale=1920:1080:flags=bicubic[main];[1:v]settb=AVTB,setpts=PTS-STARTPTS,format=pix_fmts=yuv420p,fps=24000/1001,scale=1920:1080:flags=bicubic[ref];[main][ref]ssim=eof_action=endall:stats_file='D\\:/Convert/FFMetrics/logs/ssim_logfile-6.txt'" -f null -
Input #0, matroska,webm, from 'G:\Аниме\[Топ]\Волчица и пряности\Торговец встречает мудрую волчицу\DC_Ookami_to_Koushinryou_Merchant_Meets_the_Wise_Wolf_21_Telegram_HEVC.mkv':
  Metadata:
    COMPATIBLE_BRANDS: isomiso2avc1mp41
    MAJOR_BRAND     : isom
    MINOR_VERSION   : 512
    ENCODER         : Lavf61.7.100
  Duration: 00:23:57.70, start: -0.021000, bitrate: 839 kb/s
  Stream #0:0: Video: hevc (Main 10), yuv420p10le(tv, bt709, progressive), 1920x1080 [SAR 1:1 DAR 16:9], 23.98 fps, 23.98 tbr, 1k tbn (default)
      Metadata:
        HANDLER_NAME    : VideoHandler
        VENDOR_ID       : [0][0][0][0]
        ENCODER         : Lavc61.19.100 libx265
        BPS             : 643261
        DURATION        : 00:23:56.601708333
        NUMBER_OF_FRAMES: 34444
        NUMBER_OF_BYTES : 115513718
        _STATISTICS_WRITING_APP: mkvpropedit v66.0.0 ('Josie') 64-bit
        _STATISTICS_WRITING_DATE_UTC: 2025-06-20 12:41:03
        _STATISTICS_TAGS: BPS DURATION NUMBER_OF_FRAMES NUMBER_OF_BYTES
  Stream #0:1: Audio: aac (LC), 48000 Hz, stereo, fltp (default)
      Metadata:
        HANDLER_NAME    : SoundHandler
        VENDOR_ID       : [0][0][0][0]
        ENCODER         : Lavc61.19.100 aac
        BPS             : 192707
        DURATION        : 00:23:57.696000000
        NUMBER_OF_FRAMES: 67393
        NUMBER_OF_BYTES : 34631835
        _STATISTICS_WRITING_APP: mkvpropedit v66.0.0 ('Josie') 64-bit
        _STATISTICS_WRITING_DATE_UTC: 2025-06-20 12:41:03
        _STATISTICS_TAGS: BPS DURATION NUMBER_OF_FRAMES NUMBER_OF_BYTES
Input #1, mov,mp4,m4a,3gp,3g2,mj2, from 'G:\Аниме\[Топ]\Волчица и пряности\Торговец встречает мудрую волчицу\DC_Ookami_to_Koushinryou_Merchant_Meets_the_Wise_Wolf_21_Telegram.mp4':
  Metadata:
    major_brand     : isom
    minor_version   : 512
    compatible_brands: isomiso2avc1mp41
    encoder         : Lavf61.1.100
  Duration: 00:23:57.67, start: 0.000000, bitrate: 3325 kb/s
  Stream #1:0[0x1](und): Video: h264 (High) (avc1 / 0x31637661), yuv420p(tv, bt709, progressive), 1920x1080 [SAR 1:1 DAR 16:9], 3180 kb/s, 23.98 fps, 23.98 tbr, 24k tbn (default)
      Metadata:
        handler_name    : VideoHandler
        vendor_id       : [0][0][0][0]
        encoder         : Lavc61.3.100 h264_qsv
  Stream #1:1[0x2](und): Audio: aac (HE-AACv2) (mp4a / 0x6134706D), 48000 Hz, stereo, fltp, 144 kb/s (default)
      Metadata:
        handler_name    : SoundHandler
        vendor_id       : [0][0][0][0]
Stream mapping:
  Stream #0:0 (hevc) -> settb:default
  Stream #1:0 (h264) -> settb:default
  ssim:default -> Stream #0:0 (wrapped_avframe)
  Stream #0:1 -> #0:1 (aac (native) -> pcm_s16le (native))
Output #0, null, to 'pipe:':
  Metadata:
    COMPATIBLE_BRANDS: isomiso2avc1mp41
    MAJOR_BRAND     : isom
    MINOR_VERSION   : 512
    encoder         : Lavf61.7.100
  Stream #0:0: Video: wrapped_avframe, yuv420p10le(tv, bt709, progressive), 1920x1080 [SAR 1:1 DAR 16:9], q=2-31, 200 kb/s, 23.98 fps, 23.98 tbn
      Metadata:
        encoder         : Lavc61.19.100 wrapped_avframe
  Stream #0:1: Audio: pcm_s16le, 48000 Hz, stereo, s16, 1536 kb/s (default)
      Metadata:
        HANDLER_NAME    : SoundHandler
        VENDOR_ID       : [0][0][0][0]
        _STATISTICS_TAGS: BPS DURATION NUMBER_OF_FRAMES NUMBER_OF_BYTES
        BPS             : 192707
        DURATION        : 00:23:57.696000000
        NUMBER_OF_FRAMES: 67393
        NUMBER_OF_BYTES : 34631835
        _STATISTICS_WRITING_APP: mkvpropedit v66.0.0 ('Josie') 64-bit
        _STATISTICS_WRITING_DATE_UTC: 2025-06-20 12:41:03
        encoder         : Lavc61.19.100 pcm_s16le
frame=  179 fps=0.0 q=-0.0 size=N/A time=00:00:07.46 bitrate=N/A speed=14.7x    frame=  441 fps=428 q=-0.0 size=N/A time=00:00:18.39 bitrate=N/A speed=17.8x    frame=  699 fps=454 q=-0.0 size=N/A time=00:00:29.15 bitrate=N/A speed=18.9x    frame=  986 fps=481 q=-0.0 size=N/A time=00:00:41.12 bitrate=N/A speed=  20x    frame= 1250 fps=485 q=-0.0 size=N/A time=00:00:52.13 bitrate=N/A speed=20.2x    frame= 1495 fps=484 q=-0.0 size=N/A time=00:01:02.35 bitrate=N/A speed=20.2x    frame= 1782 fps=495 q=-0.0 size=N/A time=00:01:14.32 bitrate=N/A speed=20.7x    frame= 2071 fps=502 q=-0.0 size=N/A time=00:01:26.37 bitrate=N/A speed=20.9x    frame= 2338 fps=505 q=-0.0 size=N/A time=00:01:37.51 bitrate=N/A speed=21.1x    frame= 2606 fps=506 q=-0.0 size=N/A time=00:01:48.69 bitrate=N/A speed=21.1x    frame= 2861 fps=505 q=-0.0 size=N/A time=00:01:59.32 bitrate=N/A speed=21.1x    frame= 3135 fps=508 q=-0.0 size=N/A time=00:02:10.75 bitrate=N/A speed=21.2x    frame= 3390 fps=506 q=-0.0 size=N/A time=00:02:21.39 bitrate=N/A speed=21.1x    frame= 3670 fps=509 q=-0.0 size=N/A time=00:02:33.06 bitrate=N/A speed=21.2x    frame= 3943 fps=510 q=-0.0 size=N/A time=00:02:44.45 bitrate=N/A speed=21.3x    frame= 4222 fps=512 q=-0.0 size=N/A time=00:02:56.09 bitrate=N/A speed=21.4x    frame= 4483 fps=512 q=-0.0 size=N/A time=00:03:06.97 bitrate=N/A speed=21.4x    frame= 4728 fps=510 q=-0.0 size=N/A time=00:03:17.19 bitrate=N/A speed=21.3x    frame= 5000 fps=511 q=-0.0 size=N/A time=00:03:28.54 bitrate=N/A speed=21.3x    frame= 5290 fps=513 q=-0.0 size=N/A time=00:03:40.63 bitrate=N/A speed=21.4x    frame= 5549 fps=513 q=-0.0 size=N/A time=00:03:51.43 bitrate=N/A speed=21.4x    frame= 5812 fps=513 q=-0.0 size=N/A time=00:04:02.40 bitrate=N/A speed=21.4x    frame= 6108 fps=515 q=-0.0 size=N/A time=00:04:14.75 bitrate=N/A speed=21.5x    frame= 6368 fps=515 q=-0.0 size=N/A time=00:04:25.59 bitrate=N/A speed=21.5x    frame= 6637 fps=515 q=-0.0 size=N/A time=00:04:36.81 bitrate=N/A speed=21.5x    frame= 6929 fps=517 q=-0.0 size=N/A time=00:04:48.99 bitrate=N/A speed=21.6x    frame= 7206 fps=518 q=-0.0 size=N/A time=00:05:00.55 bitrate=N/A speed=21.6x    frame= 7482 fps=518 q=-0.0 size=N/A time=00:05:12.06 bitrate=N/A speed=21.6x    frame= 7720 fps=516 q=-0.0 size=N/A time=00:05:21.98 bitrate=N/A speed=21.5x    frame= 7990 fps=517 q=-0.0 size=N/A time=00:05:33.24 bitrate=N/A speed=21.6x    frame= 8270 fps=518 q=-0.0 size=N/A time=00:05:44.92 bitrate=N/A speed=21.6x    frame= 8544 fps=518 q=-0.0 size=N/A time=00:05:56.35 bitrate=N/A speed=21.6x    frame= 8830 fps=519 q=-0.0 size=N/A time=00:06:08.28 bitrate=N/A speed=21.7x    frame= 9124 fps=520 q=-0.0 size=N/A time=00:06:20.54 bitrate=N/A speed=21.7x    frame= 9389 fps=521 q=-0.0 size=N/A time=00:06:31.59 bitrate=N/A speed=21.7x    frame= 9613 fps=518 q=-0.0 size=N/A time=00:06:40.94 bitrate=N/A speed=21.6x    frame= 9802 fps=514 q=-0.0 size=N/A time=00:06:48.82 bitrate=N/A speed=21.4x    frame=10000 fps=511 q=-0.0 size=N/A time=00:06:57.08 bitrate=N/A speed=21.3x    frame=10218 fps=508 q=-0.0 size=N/A time=00:07:06.17 bitrate=N/A speed=21.2x    frame=10435 fps=506 q=-0.0 size=N/A time=00:07:15.22 bitrate=N/A speed=21.1x    frame=10652 fps=504 q=-0.0 size=N/A time=00:07:24.27 bitrate=N/A speed=  21x    frame=10846 fps=501 q=-0.0 size=N/A time=00:07:32.36 bitrate=N/A speed=20.9x    frame=11038 fps=498 q=-0.0 size=N/A time=00:07:40.37 bitrate=N/A speed=20.8x    frame=11275 fps=497 q=-0.0 size=N/A time=00:07:50.26 bitrate=N/A speed=20.7x    frame=11471 fps=495 q=-0.0 size=N/A time=00:07:58.43 bitrate=N/A speed=20.6x    frame=11648 fps=491 q=-0.0 size=N/A time=00:08:05.81 bitrate=N/A speed=20.5x    frame=11852 fps=489 q=-0.0 size=N/A time=00:08:14.32 bitrate=N/A speed=20.4x    frame=12103 fps=489 q=-0.0 size=N/A time=00:08:24.79 bitrate=N/A speed=20.4x    frame=12376 fps=490 q=-0.0 size=N/A time=00:08:36.18 bitrate=N/A speed=20.4x    frame=12660 fps=491 q=-0.0 size=N/A time=00:08:48.02 bitrate=N/A speed=20.5x    frame=12938 fps=492 q=-0.0 size=N/A time=00:08:59.62 bitrate=N/A speed=20.5x    frame=13201 fps=492 q=-0.0 size=N/A time=00:09:10.59 bitrate=N/A speed=20.5x    frame=13464 fps=493 q=-0.0 size=N/A time=00:09:21.56 bitrate=N/A speed=20.6x    frame=13736 fps=494 q=-0.0 size=N/A time=00:09:32.90 bitrate=N/A speed=20.6x    frame=13995 fps=494 q=-0.0 size=N/A time=00:09:43.70 bitrate=N/A speed=20.6x    frame=14261 fps=494 q=-0.0 size=N/A time=00:09:54.80 bitrate=N/A speed=20.6x    frame=14531 fps=495 q=-0.0 size=N/A time=00:10:06.06 bitrate=N/A speed=20.6x    frame=14800 fps=495 q=-0.0 size=N/A time=00:10:17.28 bitrate=N/A speed=20.6x    frame=15044 fps=495 q=-0.0 size=N/A time=00:10:27.46 bitrate=N/A speed=20.6x    frame=15312 fps=495 q=-0.0 size=N/A time=00:10:38.63 bitrate=N/A speed=20.6x    frame=15568 fps=495 q=-0.0 size=N/A time=00:10:49.31 bitrate=N/A speed=20.6x    frame=15843 fps=496 q=-0.0 size=N/A time=00:11:00.78 bitrate=N/A speed=20.7x    frame=16122 fps=496 q=-0.0 size=N/A time=00:11:12.42 bitrate=N/A speed=20.7x    frame=16384 fps=496 q=-0.0 size=N/A time=00:11:23.34 bitrate=N/A speed=20.7x    frame=16644 fps=497 q=-0.0 size=N/A time=00:11:34.19 bitrate=N/A speed=20.7x    frame=16911 fps=497 q=-0.0 size=N/A time=00:11:45.32 bitrate=N/A speed=20.7x    frame=17183 fps=497 q=-0.0 size=N/A time=00:11:56.67 bitrate=N/A speed=20.7x    frame=17412 fps=497 q=-0.0 size=N/A time=00:12:06.22 bitrate=N/A speed=20.7x    frame=17693 fps=497 q=-0.0 size=N/A time=00:12:17.94 bitrate=N/A speed=20.7x    frame=17955 fps=498 q=-0.0 size=N/A time=00:12:28.87 bitrate=N/A speed=20.7x    frame=18189 fps=497 q=-0.0 size=N/A time=00:12:38.63 bitrate=N/A speed=20.7x    frame=18393 fps=495 q=-0.0 size=N/A time=00:12:47.14 bitrate=N/A speed=20.7x    frame=18657 fps=496 q=-0.0 size=N/A time=00:12:58.15 bitrate=N/A speed=20.7x    frame=18947 fps=497 q=-0.0 size=N/A time=00:13:10.24 bitrate=N/A speed=20.7x    frame=19192 fps=496 q=-0.0 size=N/A time=00:13:20.46 bitrate=N/A speed=20.7x    frame=19460 fps=497 q=-0.0 size=N/A time=00:13:31.64 bitrate=N/A speed=20.7x    frame=19742 fps=497 q=-0.0 size=N/A time=00:13:43.40 bitrate=N/A speed=20.7x    frame=20020 fps=498 q=-0.0 size=N/A time=00:13:55.00 bitrate=N/A speed=20.8x    frame=20267 fps=498 q=-0.0 size=N/A time=00:14:05.30 bitrate=N/A speed=20.8x    frame=20545 fps=498 q=-0.0 size=N/A time=00:14:16.89 bitrate=N/A speed=20.8x    frame=20792 fps=498 q=-0.0 size=N/A time=00:14:27.19 bitrate=N/A speed=20.8x    frame=21064 fps=498 q=-0.0 size=N/A time=00:14:38.54 bitrate=N/A speed=20.8x    frame=21344 fps=499 q=-0.0 size=N/A time=00:14:50.22 bitrate=N/A speed=20.8x    frame=21611 fps=499 q=-0.0 size=N/A time=00:15:01.35 bitrate=N/A speed=20.8x    frame=21863 fps=499 q=-0.0 size=N/A time=00:15:11.86 bitrate=N/A speed=20.8x    frame=22141 fps=499 q=-0.0 size=N/A time=00:15:23.46 bitrate=N/A speed=20.8x    frame=22426 fps=500 q=-0.0 size=N/A time=00:15:35.35 bitrate=N/A speed=20.9x    frame=22625 fps=499 q=-0.0 size=N/A time=00:15:43.65 bitrate=N/A speed=20.8x    frame=22901 fps=499 q=-0.0 size=N/A time=00:15:55.16 bitrate=N/A speed=20.8x    frame=23181 fps=500 q=-0.0 size=N/A time=00:16:06.84 bitrate=N/A speed=20.8x    frame=23442 fps=500 q=-0.0 size=N/A time=00:16:17.72 bitrate=N/A speed=20.8x    frame=23680 fps=499 q=-0.0 size=N/A time=00:16:27.65 bitrate=N/A speed=20.8x    frame=23890 fps=498 q=-0.0 size=N/A time=00:16:36.41 bitrate=N/A speed=20.8x    frame=24166 fps=499 q=-0.0 size=N/A time=00:16:47.92 bitrate=N/A speed=20.8x    frame=24438 fps=499 q=-0.0 size=N/A time=00:16:59.26 bitrate=N/A speed=20.8x    frame=24706 fps=499 q=-0.0 size=N/A time=00:17:10.44 bitrate=N/A speed=20.8x    frame=24979 fps=499 q=-0.0 size=N/A time=00:17:21.83 bitrate=N/A speed=20.8x    frame=25254 fps=500 q=-0.0 size=N/A time=00:17:33.30 bitrate=N/A speed=20.8x    frame=25528 fps=500 q=-0.0 size=N/A time=00:17:44.73 bitrate=N/A speed=20.9x    frame=25807 fps=501 q=-0.0 size=N/A time=00:17:56.36 bitrate=N/A speed=20.9x    frame=26078 fps=501 q=-0.0 size=N/A time=00:18:07.66 bitrate=N/A speed=20.9x    frame=26320 fps=500 q=-0.0 size=N/A time=00:18:17.76 bitrate=N/A speed=20.9x    frame=26569 fps=500 q=-0.0 size=N/A time=00:18:28.14 bitrate=N/A speed=20.9x    frame=26821 fps=500 q=-0.0 size=N/A time=00:18:38.65 bitrate=N/A speed=20.9x    frame=27072 fps=500 q=-0.0 size=N/A time=00:18:49.12 bitrate=N/A speed=20.9x    frame=27338 fps=500 q=-0.0 size=N/A time=00:19:00.22 bitrate=N/A speed=20.9x    frame=27610 fps=500 q=-0.0 size=N/A time=00:19:11.56 bitrate=N/A speed=20.9x    frame=27883 fps=501 q=-0.0 size=N/A time=00:19:22.95 bitrate=N/A speed=20.9x    frame=28155 fps=501 q=-0.0 size=N/A time=00:19:34.29 bitrate=N/A speed=20.9x    frame=28423 fps=501 q=-0.0 size=N/A time=00:19:45.47 bitrate=N/A speed=20.9x    frame=28718 fps=502 q=-0.0 size=N/A time=00:19:57.77 bitrate=N/A speed=20.9x    frame=28967 fps=502 q=-0.0 size=N/A time=00:20:08.16 bitrate=N/A speed=20.9x    frame=29247 fps=502 q=-0.0 size=N/A time=00:20:19.84 bitrate=N/A speed=20.9x    frame=29516 fps=502 q=-0.0 size=N/A time=00:20:31.06 bitrate=N/A speed=20.9x    frame=29802 fps=503 q=-0.0 size=N/A time=00:20:42.99 bitrate=N/A speed=  21x    frame=30071 fps=503 q=-0.0 size=N/A time=00:20:54.21 bitrate=N/A speed=  21x    frame=30350 fps=503 q=-0.0 size=N/A time=00:21:05.84 bitrate=N/A speed=  21x    frame=30619 fps=503 q=-0.0 size=N/A time=00:21:17.06 bitrate=N/A speed=  21x    frame=30884 fps=503 q=-0.0 size=N/A time=00:21:28.12 bitrate=N/A speed=  21x    frame=31157 fps=504 q=-0.0 size=N/A time=00:21:39.50 bitrate=N/A speed=  21x    frame=31411 fps=504 q=-0.0 size=N/A time=00:21:50.10 bitrate=N/A speed=  21x    frame=31673 fps=504 q=-0.0 size=N/A time=00:22:01.02 bitrate=N/A speed=  21x    frame=31953 fps=504 q=-0.0 size=N/A time=00:22:12.70 bitrate=N/A speed=  21x    frame=32194 fps=504 q=-0.0 size=N/A time=00:22:22.75 bitrate=N/A speed=  21x    frame=32357 fps=502 q=-0.0 size=N/A time=00:22:29.55 bitrate=N/A speed=20.9x    frame=32563 fps=501 q=-0.0 size=N/A time=00:22:38.14 bitrate=N/A speed=20.9x    frame=32814 fps=501 q=-0.0 size=N/A time=00:22:48.61 bitrate=N/A speed=20.9x    frame=33058 fps=501 q=-0.0 size=N/A time=00:22:58.79 bitrate=N/A speed=20.9x    frame=33258 fps=500 q=-0.0 size=N/A time=00:23:07.13 bitrate=N/A speed=20.9x    frame=33462 fps=499 q=-0.0 size=N/A time=00:23:15.64 bitrate=N/A speed=20.8x    frame=33702 fps=499 q=-0.0 size=N/A time=00:23:25.65 bitrate=N/A speed=20.8x    frame=33960 fps=499 q=-0.0 size=N/A time=00:23:36.41 bitrate=N/A speed=20.8x    frame=34168 fps=498 q=-0.0 size=N/A time=00:23:45.09 bitrate=N/A speed=20.8x    frame=34332 fps=497 q=-0.0 size=N/A time=00:23:51.97 bitrate=N/A speed=20.7x    [Parsed_ssim_10 @ 000002022b925f00] SSIM Y:0.994351 (22.480093) U:0.994692 (22.750756) V:0.995269 (23.250455) All:0.994561 (22.644552)
[out#0/null @ 000002022a9754c0] video:14800KiB audio:269572KiB subtitle:0KiB other streams:0KiB global headers:0KiB muxing overhead: unknown
frame=34444 fps=497 q=-0.0 Lsize=N/A time=00:23:56.60 bitrate=N/A speed=20.7x    
